<?xml version="1.0" encoding="utf-8"?>
<!-- Generator: Adobe Illustrator 25.0.1, SVG Export Plug-In . SVG Version: 6.00 Build 0)  -->
<svg version="1.0"
	 id="svg8" sodipodi:docname="datadog.svg" xmlns:cc="http://creativecommons.org/ns#" xmlns:dc="http://purl.org/dc/elements/1.1/" xmlns:inkscape="http://www.inkscape.org/namespaces/inkscape" xmlns:rdf="http://www.w3.org/1999/02/22-rdf-syntax-ns#" xmlns:sodipodi="http://sodipodi.sourceforge.net/DTD/sodipodi-0.dtd" xmlns:svg="http://www.w3.org/2000/svg"
	 xmlns="http://www.w3.org/2000/svg" xmlns:xlink="http://www.w3.org/1999/xlink" x="0px" y="0px" viewBox="0 0 293.8 209.8"
	 style="enable-background:new 0 0 293.8 209.8;" xml:space="preserve">
<style type="text/css">
	.st0{clip-path:url(#SVGID_2_);}
	.st1{fill-rule:evenodd;clip-rule:evenodd;fill:#612BA6;}
</style>
<sodipodi:namedview  bordercolor="#666666" borderopacity="1.0" fit-margin-bottom="0.5" fit-margin-left="0.5" fit-margin-right="0.5" fit-margin-top="0.5" id="base" inkscape:current-layer="layer1" inkscape:cx="556.09602" inkscape:cy="485.44086" inkscape:document-rotation="0" inkscape:document-units="px" inkscape:pageopacity="0" inkscape:pageshadow="2" inkscape:window-height="872" inkscape:window-maximized="0" inkscape:window-width="1440" inkscape:window-x="0" inkscape:window-y="28" inkscape:zoom="0.36840367" lock-margins="true" pagecolor="#00ffff" showgrid="false" units="px">
	</sodipodi:namedview>
<g id="layer1" transform="translate(-95.758842,-19.632197)" inkscape:groupmode="layer" inkscape:label="Layer 1">
	<g>
		<defs>
			<rect id="SVGID_1_" x="162.6" y="180.3" width="160.2" height="24.3"/>
		</defs>
		<clipPath id="SVGID_2_">
			<use xlink:href="#SVGID_1_"  style="overflow:visible;"/>
		</clipPath>
		<g id="g20190" transform="matrix(0.05293403,0,0,0.05293403,95.8779,19.751081)" class="st0">
			<path id="path20188" class="st1" d="M4201.4,3305.8v105.6c-19.3,5.1-36.7,7.5-51.9,7.5c-102.5,0-153.7-54.1-153.7-162.5
				c0-100,54.3-150,162.9-150c45.3,0,87.5,8.4,126.5,25.3V3056c-39-14.7-83.2-22.1-132.8-22.1c-162.3,0-243.6,74.1-243.6,222.6
				c0,156.7,79.8,235.2,239.4,235.2c54.9,0,100.5-8,137-24v-236.1h-135.4l-28.3,74.3H4201.4z M3628.1,3419
				c91.1,0,136.6-52.5,136.6-157.4c0-103.4-45.5-155.1-136.6-155.1c-93.4,0-140.1,51.7-140.1,155.1
				C3488,3366.5,3534.7,3419,3628.1,3419 M3401,3263.4c0-153.1,75.8-229.5,227.1-229.5c149.1,0,223.6,76.5,223.6,229.5
				c0,152.1-74.5,228.3-223.6,228.3C3483.4,3491.7,3407.8,3415.6,3401,3263.4 M3020,3415.8h99.6c93.8,0,140.8-55.1,140.8-165.4
				c0-93.9-47-140.8-140.8-140.8H3020V3415.8z M3132.3,3488.5h-196.1v-451.3h196.1c141.3,0,211.9,71.1,211.9,213.3
				C3344.2,3409.1,3273.6,3488.5,3132.3,3488.5 M2488.4,3488.5h-86.1l192-451.3h90.1l196.1,451.3h-90.2l-56.9-123.1h-144.8
				l28.7-72.5h94l-74-169.5L2488.4,3488.5z M2102.1,3037.2h343.2v72.6h-129.7v378.7h-83.8v-378.7h-129.7V3037.2z M1757.4,3488.5
				h-86.1l192-451.3h90.1l196.2,451.3h-90.2l-56.9-123.1h-144.9l28.8-72.5h94l-74-169.5L1757.4,3488.5z M1345.4,3415.8h99.6
				c93.8,0,140.7-55.1,140.7-165.4c0-93.9-46.9-140.8-140.7-140.8h-99.6V3415.8z M1457.6,3488.5h-196v-451.3h196
				c141.2,0,212,71.1,212,213.3C1669.6,3409.1,1598.8,3488.5,1457.6,3488.5"/>
		</g>
	</g>
	<path id="path20192" class="st1" d="M242.3,83.1c0.9-0.8-4.3-1.9-8.2,0.8c-2.9,2-3,6.3-0.2,8.7c0.3,0.2,0.5,0.4,0.7,0.6
		c0.8-0.4,1.8-0.8,2.8-1.1c1.8-0.6,3.3-0.9,4.6-1.1c0.6-0.7,1.3-1.8,1.1-3.9C242.9,84.2,240.7,84.7,242.3,83.1 M269.2,98.7
		c-0.5-0.3-2.7-0.2-4.3,0c-3,0.4-6.3,1.4-7,2c-1.3,1-0.7,2.8,0.3,3.5c2.7,2,5.1,3.4,7.6,3c1.5-0.2,2.9-2.6,3.8-4.8
		C270.1,100.9,270.1,99.2,269.2,98.7 M258.8,80.7c-0.2,0.4-0.5,0.7,0,2l0,0.1l0.1,0.2l0.2,0.4c0.7,1.5,1.6,2.9,2.9,3.7
		c0.4-0.1,0.7-0.1,1.1-0.1c1.3-0.1,2.1,0.1,2.6,0.4c0-0.3,0.1-0.6,0-1.2c-0.1-1.9,0.4-5.2-3.3-6.9c-1.4-0.6-3.4-0.4-4,0.4
		c0.1,0,0.2,0,0.3,0.1C259.7,80,259,80.3,258.8,80.7 M296.9,107.1l-3.2,0.6l-6.1-63.2L183.4,56.6l12.8,104.2l12.2-1.8
		c-1-1.4-2.5-3.1-5.1-5.2c-3.6-3-2.3-8.1-0.2-11.3c2.8-5.4,17.2-12.3,16.4-20.9c-0.3-3.1-0.8-7.2-3.7-10c-0.1,1.2,0.1,2.3,0.1,2.3
		s-1.2-1.5-1.8-3.6c-0.6-0.8-1.1-1.1-1.7-2.1c-0.4,1.2-0.4,2.7-0.4,2.7s-1-2.3-1.1-4.3c-0.6,0.9-0.7,2.5-0.7,2.5s-1.3-3.6-1-5.6
		c-0.6-1.7-2.3-5.1-1.8-12.8c3.2,2.2,10.2,1.7,12.9-2.3c0.9-1.3,1.5-5-0.5-12.1c-1.3-4.6-4.4-11.4-5.6-14l-0.1,0.1
		c0.6,2.1,2,6.5,2.5,8.6c1.5,6.4,2,8.7,1.2,11.7c-0.6,2.6-2.1,4.3-5.9,6.2c-3.8,1.9-8.7-2.7-9.1-3c-3.7-2.9-6.5-7.7-6.8-10
		c-0.3-2.5,1.5-4,2.4-6.1c-1.3,0.4-2.7,1-2.7,1s1.7-1.8,3.8-3.3c0.9-0.6,1.4-0.9,2.3-1.7c-1.3,0-2.4,0-2.4,0s2.2-1.2,4.5-2.1
		c-1.7-0.1-3.3,0-3.3,0s5-2.2,8.9-3.8c2.7-1.1,5.3-0.8,6.8,1.4c1.9,2.8,4,4.3,8.3,5.3c2.7-1.2,3.5-1.8,6.8-2.7
		c2.9-3.2,5.2-3.6,5.2-3.6s-1.1,1-1.4,2.7c1.7-1.3,3.5-2.4,3.5-2.4s-0.7,0.9-1.4,2.3l0.2,0.2c1.9-1.2,4.2-2.1,4.2-2.1
		s-0.7,0.8-1.4,1.9c1.5,0,4.4,0.1,5.6,0.2c6.8,0.1,8.2-7.3,10.8-8.2c3.3-1.2,4.7-1.9,10.3,3.6c4.8,4.7,8.5,13.1,6.7,15
		c-1.6,1.6-4.6-0.6-8-4.8c-1.8-2.2-3.2-4.9-3.8-8.3c-0.5-2.8-2.6-4.5-2.6-4.5s1.2,2.7,1.2,5.1c0,1.3,0.2,6.2,2.2,8.9
		c-0.2,0.4-0.3,2-0.5,2.3c-2.4-2.9-7.6-5-8.5-5.6c2.9,2.4,9.5,7.8,12,13c2.4,4.9,1,9.4,2.2,10.6C268.2,90,273,96,274,99
		c1.6,5.3,0.1,10.8-2,14.2l-5.9,0.9c-0.9-0.2-1.4-0.4-2.2-0.8c0.4-0.8,1.3-2.6,1.3-3l-0.3-0.6c-1.8,2.6-4.9,5.1-7.5,6.6
		c-3.3,1.9-7.2,1.6-9.7,0.8c-7.1-2.2-13.9-7-15.5-8.3c0,0,0,1,0.3,1.2c1.8,2,5.9,5.7,9.9,8.3l-8.5,0.9l4,31.2
		c-1.8,0.3-2.1,0.4-4,0.7c-1.7-6.1-5-10-8.6-12.3c-3.2-2-7.5-2.5-11.7-1.7l-0.3,0.3c2.9-0.3,6.3,0.1,9.9,2.3
		c3.5,2.2,6.2,7.8,7.3,11.2c1.3,4.3,2.2,9-1.3,13.9c-2.5,3.5-9.9,5.4-15.8,1.3c1.6,2.5,3.7,4.6,6.6,5c4.3,0.6,8.3-0.2,11.1-3
		c2.4-2.5,3.7-7.6,3.3-13l3.8-0.5l1.4,9.7l62.6-7.5L296.9,107.1z M237,121.4l7.9-1.1c1.3,0.6,2.2,0.8,3.7,1.2
		c2.4,0.6,5.1,1.2,9.2-0.8c0.9-0.5,2.9-2.3,3.7-3.3l32.2-5.8l3.3,39.8l-55.2,10L237,121.4z M282.7,134.7l-10.6-7l-8.8,14.7l-10.2-3
		l-9,13.8l0.5,4.3l49.1-9l-2.8-30.6L282.7,134.7z"/>
</g>
</svg>
