<svg xmlns="http://www.w3.org/2000/svg" viewBox="0 0 512 512"  width="512" height="512" fill="#fff"><path d="M256 49.5c67.3 0 75.2.2 101.8 1.4 24.6 1.2 37.9 5.3 46.8 8.7a78 78 0 0 1 29 18.9 78 78 0 0 1 18.8 29c3.4 8.8 7.5 22.1 8.7 46.7 1.2 26.6 1.4 34.5 1.4 101.8s-.2 75.2-1.4 101.8a139.4 139.4 0 0 1-8.7 46.8 83.4 83.4 0 0 1-47.8 47.8c-8.9 3.4-22.2 7.5-46.8 8.7-26.6 1.2-34.5 1.4-101.8 1.4s-75.2-.2-101.8-1.4a139.4 139.4 0 0 1-46.8-8.7 78 78 0 0 1-29-18.9 78 78 0 0 1-18.8-29c-3.4-8.8-7.5-22.1-8.7-46.7-1.2-26.6-1.4-34.5-1.4-101.8s.2-75.2 1.4-101.8c1.2-24.6 5.3-37.9 8.7-46.8a78 78 0 0 1 18.9-29 78 78 0 0 1 29-18.8c8.8-3.4 22.1-7.5 46.7-8.7 26.6-1.2 34.5-1.4 101.8-1.4M256 4c-68.4 0-77 .3-103.9 1.5A184.9 184.9 0 0 0 91 17.3a123.5 123.5 0 0 0-44.6 29A123.5 123.5 0 0 0 17.3 91 185 185 0 0 0 5.6 152C4.4 179 4.1 187.6 4.1 256s.3 77 1.5 103.9c1.2 26.8 5.5 45 11.7 61.1a123.5 123.5 0 0 0 29 44.6 123.5 123.5 0 0 0 44.7 29 185 185 0 0 0 61.1 11.8c27 1.2 35.5 1.5 103.9 1.5s77-.3 103.9-1.5c26.8-1.2 45.1-5.5 61.1-11.7a128.8 128.8 0 0 0 73.7-73.7 185 185 0 0 0 11.7-61.1c1.2-26.9 1.5-35.5 1.5-103.9s-.3-77-1.5-103.9A184.9 184.9 0 0 0 494.7 91a123.5 123.5 0 0 0-29-44.6A123.5 123.5 0 0 0 421 17.3 185 185 0 0 0 360 5.6C333 4.4 324.4 4.1 256 4.1z"/><path d="M256 126.6A129.4 129.4 0 1 0 385.4 256 129.4 129.4 0 0 0 256 126.6zm0 213.4a84 84 0 1 1 84-84 84 84 0 0 1-84 84z"/><circle cx="390.5" cy="121.5" r="30.2"/>
</svg>
