<svg width="81" height="54" viewBox="0 0 81 54" fill="none" xmlns="http://www.w3.org/2000/svg">
<path d="M44.8914 53.1437H74.6379C75.5827 53.1438 76.5109 52.9026 77.3291 52.4443C78.1473 51.986 78.8267 51.3269 79.2989 50.5331C79.7711 49.7393 80.0195 48.8389 80.0191 47.9225C80.0186 47.0061 79.7694 46.1059 79.2965 45.3125L59.3196 11.7496C58.8475 10.956 58.1682 10.297 57.3502 9.83876C56.5321 9.38057 55.6042 9.13934 54.6595 9.13934C53.7149 9.13934 52.7869 9.38057 51.9689 9.83876C51.1509 10.297 50.4716 10.956 49.9994 11.7496L44.8914 20.3371L34.9044 3.54441C34.4318 2.75088 33.7523 2.09197 32.934 1.63385C32.1158 1.17574 31.1876 0.93457 30.2429 0.93457C29.2981 0.93457 28.3699 1.17574 27.5517 1.63385C26.7334 2.09197 26.0539 2.75088 25.5813 3.54441L0.722527 45.3125C0.249608 46.1059 0.000411596 47.0061 5.09434e-07 47.9225C-0.000410577 48.8389 0.247979 49.7393 0.720185 50.5331C1.19239 51.3269 1.87176 51.986 2.68997 52.4443C3.50818 52.9026 4.43637 53.1438 5.38119 53.1437H24.0535C31.4517 53.1437 36.9076 49.9915 40.6618 43.8419L49.7762 28.531L54.6581 20.3371L69.3095 44.9498H49.7762L44.8914 53.1437ZM23.7491 44.9413L10.7182 44.9385L30.2516 12.1235L39.9979 28.531L33.4723 39.4975C30.9792 43.4876 28.1469 44.9413 23.7491 44.9413Z" fill="#00DC82"/>
</svg>
