<svg xmlns="http://www.w3.org/2000/svg" viewBox="0 0 46.53 46.53"><g id="Layer_2" data-name="Layer 2"><g id="Layer_1-2" data-name="Layer 1"><path d="M.11,15.5a1.53,1.53,0,0,0,.52,1.78c.33.27,1.09.47,11.57,3C18.38,21.71,23.46,23,23.51,23s1.27,5,2.71,11.08S28.89,45.22,29,45.41a1.82,1.82,0,0,0,1.08,1A1.43,1.43,0,0,0,31.58,46c.34-.33.54-.91,7.61-22.13,4-12,7.29-21.92,7.32-22.09A1.72,1.72,0,0,0,44.71,0c-.16,0-10.1,3.33-22.08,7.32C1.89,14.24.82,14.61.52,14.92A2.4,2.4,0,0,0,.11,15.5ZM25,10c9.5-3.16,17.28-5.74,17.29-5.72S30.78,38.84,30.73,38.84s-.85-3.44-1.85-7.65c-2.69-11.27-2.43-10.3-2.82-10.69a1.82,1.82,0,0,0-.63-.42c-.16,0-4.19-1-9-2.16L7.7,15.83s0,0,0-.05Z"/></g></g></svg>