<svg xmlns="http://www.w3.org/2000/svg" viewBox="0 0 46.53 46.53"><g id="Layer_2" data-name="Layer 2"><g id="Layer_1-2" data-name="Layer 1"><path d="M46.52,1.81c0,.17-3.32,10.1-7.32,22.09C32.13,45.12,31.93,45.7,31.59,46a1.44,1.44,0,0,1-1.55.42,1.85,1.85,0,0,1-1.08-1c-.06-.19-1.29-5.28-2.73-11.32s-2.65-11-2.71-11.08-5.14-1.3-11.31-2.76C1.73,17.75,1,17.55.64,17.28A1.53,1.53,0,0,1,.11,15.5a2.21,2.21,0,0,1,.42-.58c.3-.31,1.36-.68,22.1-7.59,12-4,21.93-7.28,22.09-7.31A1.7,1.7,0,0,1,46.52,1.81Z"/></g></g></svg>