<svg xmlns="http://www.w3.org/2000/svg" viewBox="0 0 48.05 48.05"><defs><style>.cls-1{fill:#1d1d1b;}.cls-2{fill:none;}.cls-3{fill:#fff;}</style></defs><g id="Layer_2" data-name="Layer 2"><g id="Layer_1-2" data-name="Layer 1"><polygon class="cls-1" points="19.7 26.12 21.82 28.23 21.82 28.24 19.7 30.36 13.14 36.91 11.02 34.79 17.58 28.24 11.02 21.68 13.14 19.56 19.7 26.12"/><rect class="cls-1" x="27.44" y="32.71" width="12.28" height="3"/><polygon class="cls-2" points="19.7 26.12 21.82 28.23 21.82 28.24 19.7 30.36 13.14 36.91 11.02 34.79 17.58 28.24 11.02 21.68 13.14 19.56 19.7 26.12"/><rect class="cls-2" x="27.44" y="32.71" width="12.28" height="3"/><path class="cls-1" d="M0,0V48.05H48.05V0ZM11,21.68l2.12-2.12,6.56,6.56,2.12,2.11h0L19.7,30.36l-6.56,6.55L11,34.79l6.56-6.55Zm28.7,14H27.44v-3H39.72Z"/><rect class="cls-3" x="27.44" y="32.71" width="12.28" height="3"/><polygon class="cls-3" points="21.82 28.24 19.7 30.36 13.14 36.91 11.02 34.79 17.58 28.24 11.02 21.68 13.14 19.56 21.82 28.24"/></g></g></svg>