<svg xmlns="http://www.w3.org/2000/svg" viewBox="0 0 48.05 48.05"><defs><style>.cls-1{fill:none;}.cls-2{fill:#1d1d1b;}</style></defs><g id="Layer_2" data-name="Layer 2"><g id="Layer_1-2" data-name="Layer 1"><path class="cls-1" d="M3,13.47V45.05H45.05V13.47ZM19.7,30.36l-6.56,6.55L11,34.79l6.56-6.55L11,21.68l2.12-2.12,8.68,8.68Zm20,5.35H27.44v-3H39.72Z"/><path d="M0,0V48.05H48.05V0ZM45.05,45.05H3V13.47H45.05Z"/><rect x="27.44" y="32.71" width="12.28" height="3"/><polygon points="21.82 28.24 19.7 30.36 13.14 36.91 11.02 34.79 17.58 28.24 11.02 21.68 13.14 19.56 21.82 28.24"/><polygon class="cls-2" points="21.82 28.23 21.82 28.24 19.7 26.12 21.82 28.23"/></g></g></svg>