<svg xmlns="http://www.w3.org/2000/svg" viewBox="0 0 45.94 48.05">
    <defs>
        <style>.cls-1{fill:#1d1d1b;}</style>
    </defs>
    <g id="Layer_2" data-name="Layer 2">
        <g id="Layer_1-2" data-name="Layer 1">
            <path class="cls-1" d="M44.3,48.05H29a1.54,1.54,0,0,1-1.5-1.5V34.25a4.6,4.6,0,0,0-9.2,0v12.3a1.54,1.54,0,0,1-1.5,1.5H1.5A1.54,1.54,0,0,1,0,46.55V23.05A2.1,2.1,0,0,1,.4,22L21.9.45a1.45,1.45,0,0,1,2.1,0L45.5,22a1.38,1.38,0,0,1,.3,1.6c0,.1-.1.1-.1.2v22.8A1.39,1.39,0,0,1,44.3,48.05Zm-13.8-3H42.8V23.45L23,3.65l-20,20v21.4H15.3V34.25a7.47,7.47,0,0,1,7.6-7.6,7.47,7.47,0,0,1,7.6,7.6Z"/>
        </g>
    </g>
</svg>